<?xml version="1.0" standalone="no"?>
<!DOCTYPE svg PUBLIC "-//W3C//DTD SVG 20010904//EN"
 "http://www.w3.org/TR/2001/REC-SVG-20010904/DTD/svg10.dtd">
<svg version="1.0" xmlns="http://www.w3.org/2000/svg"
 width="88.000000pt" height="66.000000pt" viewBox="0 0 88.000000 66.000000"
 preserveAspectRatio="xMidYMid meet">
<metadata>
Created by potrace 1.16, written by Peter Selinger 2001-2019
</metadata>
<g transform="translate(0.000000,66.000000) scale(0.100000,-0.100000)"
fill="#000000" stroke="none">
<path d="M240 464 c-25 -29 0 -66 85 -122 44 -29 90 -57 103 -63 27 -11 53 1
158 72 73 49 91 77 73 111 -9 17 -26 18 -208 18 -168 0 -201 -2 -211 -16z"/>
<path d="M230 282 c0 -63 4 -102 12 -110 15 -15 385 -17 408 -2 11 7 16 34 18
110 2 55 1 100 -1 100 -3 0 -48 -27 -100 -60 -51 -33 -103 -60 -116 -60 -27 0
-45 9 -139 72 -41 26 -75 48 -78 48 -2 0 -4 -44 -4 -98z"/>
</g>
</svg>
